# xmcd
#
# Track frame offsets: 
#        150
#        14705
#        33307
#        44995
#        60682
#        75855
#        97130
#        107952
#        123510
#        139200
#        153715
#        173615
#        185437
#        206502
#        218225
#        228730
#        241222
#        253532
#        265880
#        279257
#        293530
#        304540
#        319172
#        332762
#
# Disc length: 4582 seconds
#
# Revision: 4
# Processed by: cddbd v1.5.2PL0 Copyright (c) Steve Scherf et al.
# Submitted via: ExactAudioCopy v0.99pb5
#
DISCID=6311e418
DTITLE=Various Artist - Swamp Blues
DYEAR=1997
DGENRE=Blues
TTITLE0=Whispering Smith - Looking The World Over
TTITLE1=Arthus ''Guitar'' Kelly - Somebody Stole My Baby And Gone
TTITLE2=Silas Hogan - Just Give Me Chance
TTITLE3=Clarence Edwards - Lonesome Bedroom Blues
TTITLE4=Henry Gray - Can't Last Too Long
TTITLE5=Whispering Smith - A Thousand Miles From Nowhere
TTITLE6=Whispering Smith - Deep South Mose
TTITLE7=Silas Hogan - Dry Chemical BLues
TTITLE8=Arthur ''Guitar'' Kelly - How Can I Stay When All I Have Is Go
TTITLE8=ne
TTITLE9=Clarence Edwards - Let Me Love You Baby
TTITLE10=Whispering Smith - Cold Black Mare
TTITLE11=Silas Hogan - I Didn't Tell Her To Leave
TTITLE12=Clarence Edwards - Cooling Board
TTITLE13=Whispering Smith - Storm In Texas aka Texas Flood
TTITLE14=Henry Gray - Gray's Bounce
TTITLE15=Silas Hogan - Hoo-Doo Blues
TTITLE16=Henry Gray - Worried Life Blues
TTITLE17=Clarence Edwards - I Want Somebody
TTITLE18=Arthur ''Guitar'' Kelly - I Don't Know Why
TTITLE19=Silas Hogan - Honey Bee Blues
TTITLE20=Whispering Smith - Baton Rouge Breakdown
TTITLE21=Henry Gray - Showers Of Rain
TTITLE22=Arthur ''Guitar'' Kelly - Number Ten At The Station And Numbe
TTITLE22=r Twelve Is On The Road
TTITLE23=Whispering Smith - Baby Please Don't Go
EXTD=1997\n\n\nsubmitted by Stamppot
EXTT0=
EXTT1=
EXTT2=
EXTT3=
EXTT4=
EXTT5=
EXTT6=
EXTT7=
EXTT8=
EXTT9=
EXTT10=
EXTT11=
EXTT12=
EXTT13=
EXTT14=
EXTT15=
EXTT16=
EXTT17=
EXTT18=
EXTT19=
EXTT20=
EXTT21=
EXTT22=
EXTT23=
PLAYORDER=
